# Blender 5.0.1
# www.blender.org
o Cube
v -1.478253 -0.051419 -0.728581
v -1.478253 4.110012 -0.728581
v -1.035381 -0.051419 -1.682407
v -1.035381 4.110012 -1.682407
v -0.524428 -0.051419 -0.285709
v -0.524428 4.110012 -0.285709
v -0.081555 -0.051419 -1.239535
v -0.081555 4.110012 -1.239535
vn -0.9070 -0.0000 -0.4211
vn 0.4211 -0.0000 -0.9070
vn 0.9070 -0.0000 0.4211
vn -0.4211 -0.0000 0.9070
vn -0.0000 -1.0000 -0.0000
vn -0.0000 1.0000 -0.0000
vt 0.625000 0.000000
vt 0.375000 0.250000
vt 0.375000 0.000000
vt 0.625000 0.250000
vt 0.375000 0.500000
vt 0.625000 0.500000
vt 0.375000 0.750000
vt 0.625000 0.750000
vt 0.375000 1.000000
vt 0.125000 0.750000
vt 0.125000 0.500000
vt 0.875000 0.500000
vt 0.625000 1.000000
vt 0.875000 0.750000
s 0
f 2/1/1 3/2/1 1/3/1
f 4/4/2 7/5/2 3/2/2
f 8/6/3 5/7/3 7/5/3
f 6/8/4 1/9/4 5/7/4
f 7/5/5 1/10/5 3/11/5
f 4/12/6 6/8/6 8/6/6
f 2/1/1 4/4/1 3/2/1
f 4/4/2 8/6/2 7/5/2
f 8/6/3 6/8/3 5/7/3
f 6/8/4 2/13/4 1/9/4
f 7/5/5 5/7/5 1/10/5
f 4/12/6 2/14/6 6/8/6
